<svg xmlns="http://www.w3.org/2000/svg" xmlns:xlink="http://www.w3.org/1999/xlink" style="enable-background:new 0 0 16 16;" version="1.1" xml:space="preserve" width="16" height="16"><rect id="backgroundrect" width="100%" height="100%" x="0" y="0" fill="none" stroke="none" class="" style=""/><g class="currentLayer" style=""><title>Layer 1</title><path d="M3.5,9 h9 C14.43,9 16,7.43 16,5.5 S14.43,2 12.5,2 H4 c0,-1.105 -0.8950000000000002,-2 -2,-2 S0,0.8950000000000002 0,2 c0,1.105 0.8950000000000002,2 2,2 c0.7380000000000002,0 1.3760000000000001,-0.405 1.723,-1 H12.5 C13.878,3 15,4.122 15,5.5 S13.878,8 12.5,8 h-9 C1.57,8 0,9.57 0,11.5 S1.57,15 3.5,15 h8.777 c0.3460000000000002,0.5950000000000002 0.984,1 1.723,1 c1.105,0 2,-0.8950000000000002 2,-2 c0,-1.105 -0.8950000000000002,-2 -2,-2 s-2,0.8950000000000002 -2,2 H3.5 C2.122,14 1,12.878 1,11.5 S2.122,9 3.5,9 z" id="svg_1" class="" fill="#ffffff" fill-opacity="1"/></g></svg>