<?xml version="1.0" ?><svg id="Layer_1" style="enable-background:new 0 0 52 52;" version="1.1" viewBox="0 0 52 52" xml:space="preserve" xmlns="http://www.w3.org/2000/svg" xmlns:xlink="http://www.w3.org/1999/xlink"><style type="text/css">
	.st0{fill:#231F20;}
</style><g><g><path class="st0" d="M6.1913385,3.2355063C14.499095,3.2361791,22.8068523,3.2368522,31.1146088,3.237525    c4.034462,0.0003269,9.4645462-0.9082787,13.4202232,0.001087c1.5891762-0.5202377,2.6240692,0.0351627,3.1046791,1.6662014    c1.1310158,0.9026885,1.5255547,2.040081,1.1836205,3.4121766c0.4691315,3.0576286-0.3212624,5.0987186-3.5914879,5.8121157    c-3.818203,0.8329382-8.8467979,0.0255775-12.7893257,0.0278616c-4.2947311,0.0024881-8.5894623,0.0049763-12.8841953,0.0074654    c-3.730155,0.002161-9.2537889,0.9746895-12.8841953,0.0074654c-4.0835161-1.087944-3.2536635-2.4071207-3.2666059-5.3728361    c-0.012728-2.916635-0.1860673-5.3136253,3.6996384-5.3987155c1.4457078-0.0316584,1.4508405-2.2817707,0-2.25    c-3.5698402,0.078173-5.5152011,0.2649045-5.9651642,4.090971c-0.3134869,2.6656013-1.1210119,8.8619366,1.6009787,10.7984676    c1.7229507,1.2257767,5.9679937,0.3809319,7.8955212,0.3798141c3.9643679-0.0022964,7.9287367-0.0045929,11.8931036-0.0068893    c7.5619564-0.0043812,15.1401787,0.1318989,22.7002449-0.0336056c4.1582222-0.0910301,5.7741585-0.2441921,5.833725-4.5698528    C51.1101456,8.5574465,52.5149345,2.7660422,48.644249,1.29963c-2.3769798-0.9005212-5.4545135-0.311127-7.9437675-0.3113286    c-3.8343468-0.0003105-7.6686974-0.0006211-11.503046-0.0009317C21.5287361,0.9867486,13.8600368,0.9861274,6.1913385,0.9855062    C4.7435656,0.985389,4.7411776,3.2353888,6.1913385,3.2355063L6.1913385,3.2355063z"/></g><g><path class="st0" d="M9.4413481,9.3199482c8.3611116,0,16.7222214,0,25.0833321,0c1.4477692,0,1.4501648-2.25,0-2.25    c-8.3611107,0-16.7222214,0-25.0833321,0C7.9935808,7.0699482,7.9911828,9.3199482,9.4413481,9.3199482L9.4413481,9.3199482z"/></g><g><path class="st0" d="M38.191349,9.7366142c0.0277786,0,0.0555534,0,0.0833321,0    c1.4477692,0.000001,1.4501648-2.249999,0-2.2499995c-0.0277786,0-0.0555534,0-0.0833321,0    C36.7435799,7.4866142,36.7411842,9.7366142,38.191349,9.7366142L38.191349,9.7366142z"/></g><g><path class="st0" d="M42.7746811,9.9032812c1.4477692,0,1.4501648-2.25,0-2.25    C41.3269157,7.6532812,41.3245163,9.9032812,42.7746811,9.9032812L42.7746811,9.9032812z"/></g><g><path class="st0" d="M6.1081052,24.2374039c8.3532887-0.0004845,16.7065792-0.0009708,25.0598698-0.0014553    c4.1323528-0.0002403,9.4269314-0.8417091,13.4937763-0.0007839c1.4810677-0.4894333,2.5205612-0.0231037,3.1184845,1.3989868    c1.1782913,0.7738037,1.5767326,1.8356686,1.1953163,3.1855965c0.4380951,2.50177,0.095047,5.4641418-2.2697411,6.30476    c-3.3049088,1.1748085-9.3796768,0.0948524-12.9743652,0.1087608c-4.324852,0.0167274-8.6497593,0.0129929-12.9745369-0.0183487    c-4.0143642-0.0290909-9.0197487,0.6287117-12.9729023-0.1816635c-1.8751788,0.4059906-3.28333-0.3174667-4.2244525-2.170372    c0.0013349-0.6126366,0.0026698-1.2252769,0.0040047-1.8379154c-0.6465859-3.3138332-0.7245228-6.7318592,3.7080538-6.6737022    c1.4483371,0.019001,1.4490952-2.2309875,0-2.25c-3.7565434-0.0492878-5.8340511,0.4758358-5.9480419,4.3289089    C1.2357304,29.399332,0.0100753,35.2171707,3.4729571,36.8792c2.2383695,1.0743217,5.9929862,0.441227,8.3024254,0.4798775    c3.6589098,0.0612373,7.3181858,0.098835,10.9775467,0.118351c7.6433926,0.0407639,15.313942,0.1345558,22.9549065-0.0906906    c4.3019371-0.126812,5.4812164-0.6241112,5.5267448-4.9939957c0.0358047-3.4367523,1.1627808-8.9983311-3.0866852-10.2968521    c-2.3981094-0.7327976-5.8581619-0.1105881-8.3053513-0.1104469c-3.5340843,0.000206-7.0681686,0.000412-10.602253,0.0006161    c-7.7107296,0.0004482-15.4214573,0.0008965-23.1321869,0.0013447    C4.6603413,21.9874878,4.6579356,24.2374878,6.1081052,24.2374039L6.1081052,24.2374039z"/></g><g><path class="st0" d="M9.4413481,30.9866142c1.4477682,0,1.4501657-2.25,0-2.25    C7.9935808,28.7366142,7.9911828,30.9866142,9.4413481,30.9866142L9.4413481,30.9866142z"/></g><g><path class="st0" d="M13.9413481,31.1532822c1.4477682,0,1.4501657-2.25,0-2.25    C12.4935808,28.9032822,12.4911823,31.1532822,13.9413481,31.1532822L13.9413481,31.1532822z"/></g><g><path class="st0" d="M19.358099,30.9271927c7.6388912-0.0268688,15.2777843-0.0537357,22.9166775-0.0806026    c1.4475288-0.0050926,1.450367-2.2551022,0-2.25c-7.6388931,0.0268669-15.2777863,0.0537338-22.9166775,0.0806026    C17.9105682,28.6822834,17.907732,30.9322929,19.358099,30.9271927L19.358099,30.9271927z"/></g><g><path class="st0" d="M29.4341831,45.9111099c0.0829029,0.0057335,0.1658058,0.0114708,0.2487087,0.0172081    c-0.2651653-0.1098366-0.5303307-0.2196693-0.795496-0.3295059c1.0553551,1.0404434-0.3845882,2.4010849-1.2411537,2.8665619    c-0.9698048,0.5270157-2.0126801,0.6263428-3.0751648,0.3606339c0.2619152,0.2619133,0.5238304,0.5238304,0.7857456,0.7857437    c-0.1164055-0.7334328-0.5642433-0.8609428-1.0682964-1.2992821c-1.0479527-0.9113274-1.1257935-2.032402-0.6780872-3.3695259    c0.8752804-2.614109,4.6530876-2.5498505,5.3466225,0.1331673c0.3621063,1.4008484,2.5328445,0.8070107,2.1696281-0.5981369    c-0.9289093-3.5935898-5.1273632-4.8509064-8.0750237-2.6093597c-1.3454304,1.0231323-1.9219952,2.8419533-1.9460182,4.4860344    c-0.0115719,0.7918701,0.1363335,1.6316719,0.5153103,2.3342209c0.208065,0.3857117,0.4789505,0.7436409,0.8015499,1.0394478    c0.08354,0.0766029,0.78409,0.6038284,0.7646866,0.481575c0.0584183,0.3680801,0.440155,0.6993179,0.7857437,0.7857437    c2.4061852,0.6017456,5.0244045-0.1257324,6.6017132-2.0975914c1.1735783-1.4671402,1.3618946-5.0637894-1.1404686-5.2369347    C27.9890175,43.5611153,27.9952393,45.8115425,29.4341831,45.9111099L29.4341831,45.9111099z"/></g><g><path class="st0" d="M25.075943,36.7780838c0.0336208,1.6387711,0.0672398,3.2775383,0.1008587,4.9163094    c0.0296631,1.4458771,2.2797642,1.4508362,2.25,0c-0.0336189-1.6387711-0.0672379-3.2775383-0.1008587-4.9163094    C27.2962818,35.3322067,25.0461807,35.3272438,25.075943,36.7780838L25.075943,36.7780838z"/></g><g><path class="st0" d="M30.3580151,47.3199463c6.3888874,0,12.7777767,0,19.166666,0c1.4477692,0,1.4501648-2.25,0-2.25    c-6.3888893,0-12.7777786,0-19.166666,0C28.9102478,45.0699463,28.9078484,47.3199463,30.3580151,47.3199463    L30.3580151,47.3199463z"/></g><g><path class="st0" d="M22.2740612,45.1222687C15.4102077,45.2448578,8.550415,45.1885109,1.6895279,44.953186    c-1.4482034-0.0496712-1.4463167,2.2003937,0,2.25c6.8609118,0.2353249,13.720705,0.2916718,20.5845337,0.1690826    C23.720253,47.3464394,23.7248821,45.0963593,22.2740612,45.1222687L22.2740612,45.1222687z"/></g></g></svg>